<?xml version="1.0" encoding="UTF-8" standalone="no"?>
<!DOCTYPE svg PUBLIC "-//W3C//DTD SVG 1.1//EN"
 "http://www.w3.org/Graphics/SVG/1.1/DTD/svg11.dtd">
<!-- Generated by graphviz version 2.38.0 (20140413.2041)
 -->
<!-- Title: controllers_diagram Pages: 1 -->
<svg width="580pt" height="672pt"
 viewBox="0.00 0.00 580.00 671.50" xmlns="http://www.w3.org/2000/svg" xmlns:xlink="http://www.w3.org/1999/xlink">
<g id="graph0" class="graph" transform="scale(1 1) rotate(0) translate(289 383)">
<title>controllers_diagram</title>
<polygon fill="none" stroke="none" points="-289,288.5 -289,-383 291,-383 291,288.5 -289,288.5"/>
<!-- _diagram_info -->
<g id="node1" class="node"><title>_diagram_info</title>
<text text-anchor="start" x="-106" y="-291.6" font-family="Times,serif" font-size="13.00">Controllers diagram</text>
<text text-anchor="start" x="-106" y="-277.6" font-family="Times,serif" font-size="13.00">Date: Mar 26 2017 &#45; 14:30</text>
<text text-anchor="start" x="-106" y="-263.6" font-family="Times,serif" font-size="13.00">Migration version: 20170325114656</text>
<text text-anchor="start" x="-106" y="-249.6" font-family="Times,serif" font-size="13.00">Generated by RailRoady 1.4.2</text>
<text text-anchor="start" x="-106" y="-235.6" font-family="Times,serif" font-size="13.00">http://railroady.prestonlee.com</text>
</g>
<!-- ApplicationController -->
<g id="node2" class="node"><title>ApplicationController</title>
<path fill="none" stroke="black" d="M145,284C145,284 257,284 257,284 263,284 269,278 269,272 269,272 269,188 269,188 269,182 263,176 257,176 257,176 145,176 145,176 139,176 133,182 133,188 133,188 133,272 133,272 133,278 139,284 145,284"/>
<text text-anchor="middle" x="201" y="191.2" font-family="Times,serif" font-size="14.00">ApplicationController</text>
<polyline fill="none" stroke="black" points="133,199 269,199 "/>
<text text-anchor="start" x="141" y="214.2" font-family="Times,serif" font-size="14.00">current_administrator</text>
<text text-anchor="start" x="141" y="229.2" font-family="Times,serif" font-size="14.00">require_administrator</text>
<polyline fill="none" stroke="black" points="133,237 269,237 "/>
<polyline fill="none" stroke="black" points="133,261 269,261 "/>
<text text-anchor="start" x="141" y="276.2" font-family="Times,serif" font-size="14.00">_layout</text>
</g>
<!-- AdministratorsController -->
<g id="node3" class="node"><title>AdministratorsController</title>
<path fill="none" stroke="black" d="M145,132C145,132 275,132 275,132 281,132 287,126 287,120 287,120 287,-84 287,-84 287,-90 281,-96 275,-96 275,-96 145,-96 145,-96 139,-96 133,-90 133,-84 133,-84 133,120 133,120 133,126 139,132 145,132"/>
<text text-anchor="middle" x="210" y="-80.8" font-family="Times,serif" font-size="14.00">AdministratorsController</text>
<polyline fill="none" stroke="black" points="133,-73 287,-73 "/>
<text text-anchor="start" x="141" y="-57.8" font-family="Times,serif" font-size="14.00">create</text>
<text text-anchor="start" x="141" y="-42.8" font-family="Times,serif" font-size="14.00">destroy</text>
<text text-anchor="start" x="141" y="-27.8" font-family="Times,serif" font-size="14.00">edit</text>
<text text-anchor="start" x="141" y="-12.8" font-family="Times,serif" font-size="14.00">index</text>
<text text-anchor="start" x="141" y="2.2" font-family="Times,serif" font-size="14.00">new</text>
<text text-anchor="start" x="141" y="17.2" font-family="Times,serif" font-size="14.00">show</text>
<text text-anchor="start" x="141" y="32.2" font-family="Times,serif" font-size="14.00">update</text>
<polyline fill="none" stroke="black" points="133,40 287,40 "/>
<polyline fill="none" stroke="black" points="133,64 287,64 "/>
<text text-anchor="start" x="141" y="79.2" font-family="Times,serif" font-size="14.00">_layout</text>
<text text-anchor="start" x="141" y="94.2" font-family="Times,serif" font-size="14.00">administrator_params</text>
<text text-anchor="start" x="141" y="109.2" font-family="Times,serif" font-size="14.00">correct_administrator</text>
<text text-anchor="start" x="141" y="124.2" font-family="Times,serif" font-size="14.00">correct_hr</text>
</g>
<!-- SessionsController -->
<g id="node4" class="node"><title>SessionsController</title>
<path fill="none" stroke="black" d="M-253.5,-1C-253.5,-1 -158.5,-1 -158.5,-1 -152.5,-1 -146.5,-7 -146.5,-13 -146.5,-13 -146.5,-127 -146.5,-127 -146.5,-133 -152.5,-139 -158.5,-139 -158.5,-139 -253.5,-139 -253.5,-139 -259.5,-139 -265.5,-133 -265.5,-127 -265.5,-127 -265.5,-13 -265.5,-13 -265.5,-7 -259.5,-1 -253.5,-1"/>
<text text-anchor="middle" x="-206" y="-123.8" font-family="Times,serif" font-size="14.00">SessionsController</text>
<polyline fill="none" stroke="black" points="-265.5,-116 -146.5,-116 "/>
<text text-anchor="start" x="-257.5" y="-100.8" font-family="Times,serif" font-size="14.00">create</text>
<text text-anchor="start" x="-257.5" y="-85.8" font-family="Times,serif" font-size="14.00">destroy</text>
<text text-anchor="start" x="-257.5" y="-70.8" font-family="Times,serif" font-size="14.00">landing</text>
<text text-anchor="start" x="-257.5" y="-55.8" font-family="Times,serif" font-size="14.00">new</text>
<polyline fill="none" stroke="black" points="-265.5,-48 -146.5,-48 "/>
<polyline fill="none" stroke="black" points="-265.5,-24 -146.5,-24 "/>
<text text-anchor="start" x="-257.5" y="-8.8" font-family="Times,serif" font-size="14.00">_layout</text>
</g>
<!-- InvestigatorsController -->
<g id="node5" class="node"><title>InvestigatorsController</title>
<path fill="none" stroke="black" d="M-273,-285.5C-273,-285.5 -155,-285.5 -155,-285.5 -149,-285.5 -143,-291.5 -143,-297.5 -143,-297.5 -143,-366.5 -143,-366.5 -143,-372.5 -149,-378.5 -155,-378.5 -155,-378.5 -273,-378.5 -273,-378.5 -279,-378.5 -285,-372.5 -285,-366.5 -285,-366.5 -285,-297.5 -285,-297.5 -285,-291.5 -279,-285.5 -273,-285.5"/>
<text text-anchor="middle" x="-214" y="-363.3" font-family="Times,serif" font-size="14.00">InvestigatorsController</text>
<polyline fill="none" stroke="black" points="-285,-355.5 -143,-355.5 "/>
<text text-anchor="start" x="-277" y="-340.3" font-family="Times,serif" font-size="14.00">index</text>
<polyline fill="none" stroke="black" points="-285,-332.5 -143,-332.5 "/>
<polyline fill="none" stroke="black" points="-285,-308.5 -143,-308.5 "/>
<text text-anchor="start" x="-277" y="-293.3" font-family="Times,serif" font-size="14.00">_layout</text>
</g>
<!-- ClaimsController -->
<g id="node6" class="node"><title>ClaimsController</title>
<path fill="none" stroke="black" d="M-101.5,189C-101.5,189 81.5,189 81.5,189 87.5,189 93.5,183 93.5,177 93.5,177 93.5,-177 93.5,-177 93.5,-183 87.5,-189 81.5,-189 81.5,-189 -101.5,-189 -101.5,-189 -107.5,-189 -113.5,-183 -113.5,-177 -113.5,-177 -113.5,177 -113.5,177 -113.5,183 -107.5,189 -101.5,189"/>
<text text-anchor="middle" x="-10" y="-173.8" font-family="Times,serif" font-size="14.00">ClaimsController</text>
<polyline fill="none" stroke="black" points="-113.5,-166 93.5,-166 "/>
<text text-anchor="start" x="-105.5" y="-150.8" font-family="Times,serif" font-size="14.00">all_income_claims</text>
<text text-anchor="start" x="-105.5" y="-135.8" font-family="Times,serif" font-size="14.00">assign_investigator</text>
<text text-anchor="start" x="-105.5" y="-120.8" font-family="Times,serif" font-size="14.00">blocked</text>
<text text-anchor="start" x="-105.5" y="-105.8" font-family="Times,serif" font-size="14.00">create</text>
<text text-anchor="start" x="-105.5" y="-90.8" font-family="Times,serif" font-size="14.00">crews_list</text>
<text text-anchor="start" x="-105.5" y="-75.8" font-family="Times,serif" font-size="14.00">edit</text>
<text text-anchor="start" x="-105.5" y="-60.8" font-family="Times,serif" font-size="14.00">edit_assigned_investigator</text>
<text text-anchor="start" x="-105.5" y="-45.8" font-family="Times,serif" font-size="14.00">index</text>
<text text-anchor="start" x="-105.5" y="-30.8" font-family="Times,serif" font-size="14.00">map</text>
<text text-anchor="start" x="-105.5" y="-15.8" font-family="Times,serif" font-size="14.00">new</text>
<text text-anchor="start" x="-105.5" y="-0.8" font-family="Times,serif" font-size="14.00">new_claims</text>
<text text-anchor="start" x="-105.5" y="14.2" font-family="Times,serif" font-size="14.00">show</text>
<text text-anchor="start" x="-105.5" y="29.2" font-family="Times,serif" font-size="14.00">thankyoupage</text>
<text text-anchor="start" x="-105.5" y="44.2" font-family="Times,serif" font-size="14.00">update</text>
<polyline fill="none" stroke="black" points="-113.5,52 93.5,52 "/>
<polyline fill="none" stroke="black" points="-113.5,76 93.5,76 "/>
<text text-anchor="start" x="-105.5" y="91.2" font-family="Times,serif" font-size="14.00">_layout</text>
<text text-anchor="start" x="-105.5" y="106.2" font-family="Times,serif" font-size="14.00">access_params</text>
<text text-anchor="start" x="-105.5" y="121.2" font-family="Times,serif" font-size="14.00">claim_params</text>
<text text-anchor="start" x="-105.5" y="136.2" font-family="Times,serif" font-size="14.00">claim_update_investigator_params</text>
<text text-anchor="start" x="-105.5" y="151.2" font-family="Times,serif" font-size="14.00">claim_update_params</text>
<text text-anchor="start" x="-105.5" y="166.2" font-family="Times,serif" font-size="14.00">is_accessable</text>
<text text-anchor="start" x="-105.5" y="181.2" font-family="Times,serif" font-size="14.00">is_blocked_by_me</text>
</g>
<!-- StaticPagesController -->
<g id="node7" class="node"><title>StaticPagesController</title>
<path fill="none" stroke="black" d="M-273,132.5C-273,132.5 -163,132.5 -163,132.5 -157,132.5 -151,126.5 -151,120.5 -151,120.5 -151,51.5 -151,51.5 -151,45.5 -157,39.5 -163,39.5 -163,39.5 -273,39.5 -273,39.5 -279,39.5 -285,45.5 -285,51.5 -285,51.5 -285,120.5 -285,120.5 -285,126.5 -279,132.5 -273,132.5"/>
<text text-anchor="middle" x="-218" y="54.7" font-family="Times,serif" font-size="14.00">StaticPagesController</text>
<polyline fill="none" stroke="black" points="-285,62.5 -151,62.5 "/>
<text text-anchor="start" x="-277" y="77.7" font-family="Times,serif" font-size="14.00">landing</text>
<polyline fill="none" stroke="black" points="-285,85.5 -151,85.5 "/>
<polyline fill="none" stroke="black" points="-285,109.5 -151,109.5 "/>
<text text-anchor="start" x="-277" y="124.7" font-family="Times,serif" font-size="14.00">_layout</text>
</g>
<!-- CrewsController -->
<g id="node8" class="node"><title>CrewsController</title>
<path fill="none" stroke="black" d="M145,-134C145,-134 253,-134 253,-134 259,-134 265,-140 265,-146 265,-146 265,-350 265,-350 265,-356 259,-362 253,-362 253,-362 145,-362 145,-362 139,-362 133,-356 133,-350 133,-350 133,-146 133,-146 133,-140 139,-134 145,-134"/>
<text text-anchor="middle" x="199" y="-346.8" font-family="Times,serif" font-size="14.00">CrewsController</text>
<polyline fill="none" stroke="black" points="133,-339 265,-339 "/>
<text text-anchor="start" x="141" y="-323.8" font-family="Times,serif" font-size="14.00">create</text>
<text text-anchor="start" x="141" y="-308.8" font-family="Times,serif" font-size="14.00">destroy</text>
<text text-anchor="start" x="141" y="-293.8" font-family="Times,serif" font-size="14.00">edit</text>
<text text-anchor="start" x="141" y="-278.8" font-family="Times,serif" font-size="14.00">fulllist</text>
<text text-anchor="start" x="141" y="-263.8" font-family="Times,serif" font-size="14.00">index</text>
<text text-anchor="start" x="141" y="-248.8" font-family="Times,serif" font-size="14.00">new</text>
<text text-anchor="start" x="141" y="-233.8" font-family="Times,serif" font-size="14.00">show</text>
<text text-anchor="start" x="141" y="-218.8" font-family="Times,serif" font-size="14.00">update</text>
<polyline fill="none" stroke="black" points="133,-211 265,-211 "/>
<polyline fill="none" stroke="black" points="133,-187 265,-187 "/>
<text text-anchor="start" x="141" y="-171.8" font-family="Times,serif" font-size="14.00">_layout</text>
<text text-anchor="start" x="141" y="-156.8" font-family="Times,serif" font-size="14.00">crew_params</text>
<text text-anchor="start" x="141" y="-141.8" font-family="Times,serif" font-size="14.00">crew_update_params</text>
</g>
</g>
</svg>
