<?xml version="1.0" encoding="UTF-8" standalone="no"?>
<!DOCTYPE svg PUBLIC "-//W3C//DTD SVG 1.1//EN"
 "http://www.w3.org/Graphics/SVG/1.1/DTD/svg11.dtd">
<!-- Generated by graphviz version 2.38.0 (20140413.2041)
 -->
<!-- Title: controllers_diagram Pages: 1 -->
<svg width="672pt" height="722pt"
 viewBox="0.00 0.00 672.02 721.80" xmlns="http://www.w3.org/2000/svg" xmlns:xlink="http://www.w3.org/1999/xlink">
<g id="graph0" class="graph" transform="scale(1 1) rotate(0) translate(229.022 357.588)">
<title>controllers_diagram</title>
<polygon fill="none" stroke="none" points="-229.022,364.215 -229.022,-357.588 443,-357.588 443,364.215 -229.022,364.215"/>
<!-- _diagram_info -->
<g id="node1" class="node"><title>_diagram_info</title>
<text text-anchor="start" x="233" y="71.4" font-family="Times,serif" font-size="13.00">Controllers diagram</text>
<text text-anchor="start" x="233" y="85.4" font-family="Times,serif" font-size="13.00">Date: May 19 2016 &#45; 01:22</text>
<text text-anchor="start" x="233" y="99.4" font-family="Times,serif" font-size="13.00">Migration version: 20160512192317</text>
<text text-anchor="start" x="233" y="113.4" font-family="Times,serif" font-size="13.00">Generated by RailRoady 1.4.2</text>
<text text-anchor="start" x="233" y="127.4" font-family="Times,serif" font-size="13.00">http://railroady.prestonlee.com</text>
</g>
<!-- ApplicationController -->
<g id="node2" class="node"><title>ApplicationController</title>
<path fill="none" stroke="black" d="M20.5713,84.5032C20.5713,84.5032 132.571,84.5032 132.571,84.5032 138.571,84.5032 144.571,78.5032 144.571,72.5032 144.571,72.5032 144.571,-11.4968 144.571,-11.4968 144.571,-17.4968 138.571,-23.4968 132.571,-23.4968 132.571,-23.4968 20.5713,-23.4968 20.5713,-23.4968 14.5713,-23.4968 8.57128,-17.4968 8.57128,-11.4968 8.57128,-11.4968 8.57128,72.5032 8.57128,72.5032 8.57128,78.5032 14.5713,84.5032 20.5713,84.5032"/>
<text text-anchor="middle" x="76.5713" y="-8.29678" font-family="Times,serif" font-size="14.00">ApplicationController</text>
<polyline fill="none" stroke="black" points="8.57128,-0.496775 144.571,-0.496775 "/>
<text text-anchor="start" x="16.5713" y="14.7032" font-family="Times,serif" font-size="14.00">current_administrator</text>
<text text-anchor="start" x="16.5713" y="29.7032" font-family="Times,serif" font-size="14.00">require_administrator</text>
<polyline fill="none" stroke="black" points="8.57128,37.5032 144.571,37.5032 "/>
<polyline fill="none" stroke="black" points="8.57128,61.5032 144.571,61.5032 "/>
<text text-anchor="start" x="16.5713" y="76.7032" font-family="Times,serif" font-size="14.00">_layout</text>
</g>
<!-- StaticPagesController -->
<g id="node3" class="node"><title>StaticPagesController</title>
<path fill="none" stroke="black" d="M65.8533,293.603C65.8533,293.603 175.853,293.603 175.853,293.603 181.853,293.603 187.853,287.603 187.853,281.603 187.853,281.603 187.853,212.603 187.853,212.603 187.853,206.603 181.853,200.603 175.853,200.603 175.853,200.603 65.8533,200.603 65.8533,200.603 59.8533,200.603 53.8533,206.603 53.8533,212.603 53.8533,212.603 53.8533,281.603 53.8533,281.603 53.8533,287.603 59.8533,293.603 65.8533,293.603"/>
<text text-anchor="middle" x="120.853" y="215.803" font-family="Times,serif" font-size="14.00">StaticPagesController</text>
<polyline fill="none" stroke="black" points="53.8533,223.603 187.853,223.603 "/>
<text text-anchor="start" x="61.8533" y="238.803" font-family="Times,serif" font-size="14.00">landing</text>
<polyline fill="none" stroke="black" points="53.8533,246.603 187.853,246.603 "/>
<polyline fill="none" stroke="black" points="53.8533,270.603 187.853,270.603 "/>
<text text-anchor="start" x="61.8533" y="285.803" font-family="Times,serif" font-size="14.00">_layout</text>
</g>
<!-- ApplicationController&#45;&gt;StaticPagesController -->
<g id="edge1" class="edge"><title>ApplicationController&#45;&gt;StaticPagesController</title>
<path fill="none" stroke="black" d="M87.6313,84.6017C94.9066,120.188 104.332,166.294 111.285,200.3"/>
</g>
<!-- AdministratorsController -->
<g id="node4" class="node"><title>AdministratorsController</title>
<path fill="none" stroke="black" d="M-204.42,359.715C-204.42,359.715 -74.4197,359.715 -74.4197,359.715 -68.4197,359.715 -62.4197,353.715 -62.4197,347.715 -62.4197,347.715 -62.4197,143.715 -62.4197,143.715 -62.4197,137.715 -68.4197,131.715 -74.4197,131.715 -74.4197,131.715 -204.42,131.715 -204.42,131.715 -210.42,131.715 -216.42,137.715 -216.42,143.715 -216.42,143.715 -216.42,347.715 -216.42,347.715 -216.42,353.715 -210.42,359.715 -204.42,359.715"/>
<text text-anchor="middle" x="-139.42" y="146.915" font-family="Times,serif" font-size="14.00">AdministratorsController</text>
<polyline fill="none" stroke="black" points="-216.42,154.715 -62.4197,154.715 "/>
<text text-anchor="start" x="-208.42" y="169.915" font-family="Times,serif" font-size="14.00">create</text>
<text text-anchor="start" x="-208.42" y="184.915" font-family="Times,serif" font-size="14.00">destroy</text>
<text text-anchor="start" x="-208.42" y="199.915" font-family="Times,serif" font-size="14.00">edit</text>
<text text-anchor="start" x="-208.42" y="214.915" font-family="Times,serif" font-size="14.00">index</text>
<text text-anchor="start" x="-208.42" y="229.915" font-family="Times,serif" font-size="14.00">new</text>
<text text-anchor="start" x="-208.42" y="244.915" font-family="Times,serif" font-size="14.00">show</text>
<text text-anchor="start" x="-208.42" y="259.915" font-family="Times,serif" font-size="14.00">update</text>
<polyline fill="none" stroke="black" points="-216.42,267.715 -62.4197,267.715 "/>
<polyline fill="none" stroke="black" points="-216.42,291.715 -62.4197,291.715 "/>
<text text-anchor="start" x="-208.42" y="306.915" font-family="Times,serif" font-size="14.00">_layout</text>
<text text-anchor="start" x="-208.42" y="321.915" font-family="Times,serif" font-size="14.00">administrator_params</text>
<text text-anchor="start" x="-208.42" y="336.915" font-family="Times,serif" font-size="14.00">correct_administrator</text>
<text text-anchor="start" x="-208.42" y="351.915" font-family="Times,serif" font-size="14.00">correct_hr</text>
</g>
<!-- ApplicationController&#45;&gt;AdministratorsController -->
<g id="edge2" class="edge"><title>ApplicationController&#45;&gt;AdministratorsController</title>
<path fill="none" stroke="black" d="M22.3464,84.5324C-3.27086,110.057 -34.3075,140.982 -62.3169,168.89"/>
</g>
<!-- SessionsController -->
<g id="node5" class="node"><title>SessionsController</title>
<path fill="none" stroke="black" d="M-213.022,65.9798C-213.022,65.9798 -118.022,65.9798 -118.022,65.9798 -112.022,65.9798 -106.022,59.9798 -106.022,53.9798 -106.022,53.9798 -106.022,-60.0202 -106.022,-60.0202 -106.022,-66.0202 -112.022,-72.0202 -118.022,-72.0202 -118.022,-72.0202 -213.022,-72.0202 -213.022,-72.0202 -219.022,-72.0202 -225.022,-66.0202 -225.022,-60.0202 -225.022,-60.0202 -225.022,53.9798 -225.022,53.9798 -225.022,59.9798 -219.022,65.9798 -213.022,65.9798"/>
<text text-anchor="middle" x="-165.522" y="-56.8202" font-family="Times,serif" font-size="14.00">SessionsController</text>
<polyline fill="none" stroke="black" points="-225.022,-49.0202 -106.022,-49.0202 "/>
<text text-anchor="start" x="-217.022" y="-33.8202" font-family="Times,serif" font-size="14.00">create</text>
<text text-anchor="start" x="-217.022" y="-18.8202" font-family="Times,serif" font-size="14.00">destroy</text>
<text text-anchor="start" x="-217.022" y="-3.82016" font-family="Times,serif" font-size="14.00">landing</text>
<text text-anchor="start" x="-217.022" y="11.1798" font-family="Times,serif" font-size="14.00">new</text>
<polyline fill="none" stroke="black" points="-225.022,18.9798 -106.022,18.9798 "/>
<polyline fill="none" stroke="black" points="-225.022,42.9798 -106.022,42.9798 "/>
<text text-anchor="start" x="-217.022" y="58.1798" font-family="Times,serif" font-size="14.00">_layout</text>
</g>
<!-- ApplicationController&#45;&gt;SessionsController -->
<g id="edge3" class="edge"><title>ApplicationController&#45;&gt;SessionsController</title>
<path fill="none" stroke="black" d="M8.49043,21.0759C-27.4521,16.0988 -71.1554,10.0471 -105.772,5.25358"/>
</g>
<!-- CrewsController -->
<g id="node6" class="node"><title>CrewsController</title>
<path fill="none" stroke="black" d="M74.9942,-78.9773C74.9942,-78.9773 182.994,-78.9773 182.994,-78.9773 188.994,-78.9773 194.994,-84.9773 194.994,-90.9773 194.994,-90.9773 194.994,-294.977 194.994,-294.977 194.994,-300.977 188.994,-306.977 182.994,-306.977 182.994,-306.977 74.9942,-306.977 74.9942,-306.977 68.9942,-306.977 62.9942,-300.977 62.9942,-294.977 62.9942,-294.977 62.9942,-90.9773 62.9942,-90.9773 62.9942,-84.9773 68.9942,-78.9773 74.9942,-78.9773"/>
<text text-anchor="middle" x="128.994" y="-291.777" font-family="Times,serif" font-size="14.00">CrewsController</text>
<polyline fill="none" stroke="black" points="62.9942,-283.977 194.994,-283.977 "/>
<text text-anchor="start" x="70.9942" y="-268.777" font-family="Times,serif" font-size="14.00">create</text>
<text text-anchor="start" x="70.9942" y="-253.777" font-family="Times,serif" font-size="14.00">destroy</text>
<text text-anchor="start" x="70.9942" y="-238.777" font-family="Times,serif" font-size="14.00">edit</text>
<text text-anchor="start" x="70.9942" y="-223.777" font-family="Times,serif" font-size="14.00">fulllist</text>
<text text-anchor="start" x="70.9942" y="-208.777" font-family="Times,serif" font-size="14.00">index</text>
<text text-anchor="start" x="70.9942" y="-193.777" font-family="Times,serif" font-size="14.00">new</text>
<text text-anchor="start" x="70.9942" y="-178.777" font-family="Times,serif" font-size="14.00">show</text>
<text text-anchor="start" x="70.9942" y="-163.777" font-family="Times,serif" font-size="14.00">update</text>
<polyline fill="none" stroke="black" points="62.9942,-155.977 194.994,-155.977 "/>
<polyline fill="none" stroke="black" points="62.9942,-131.977 194.994,-131.977 "/>
<text text-anchor="start" x="70.9942" y="-116.777" font-family="Times,serif" font-size="14.00">_layout</text>
<text text-anchor="start" x="70.9942" y="-101.777" font-family="Times,serif" font-size="14.00">crew_params</text>
<text text-anchor="start" x="70.9942" y="-86.7773" font-family="Times,serif" font-size="14.00">crew_update_params</text>
</g>
<!-- ApplicationController&#45;&gt;CrewsController -->
<g id="edge4" class="edge"><title>ApplicationController&#45;&gt;CrewsController</title>
<path fill="none" stroke="black" d="M89.2614,-23.5952C93.2007,-40.3885 97.7011,-59.5737 102.224,-78.8536"/>
</g>
<!-- ClaimsController -->
<g id="node7" class="node"><title>ClaimsController</title>
<path fill="none" stroke="black" d="M-180.949,-95.0878C-180.949,-95.0878 -67.9487,-95.0878 -67.9487,-95.0878 -61.9487,-95.0878 -55.9487,-101.088 -55.9487,-107.088 -55.9487,-107.088 -55.9487,-341.088 -55.9487,-341.088 -55.9487,-347.088 -61.9487,-353.088 -67.9487,-353.088 -67.9487,-353.088 -180.949,-353.088 -180.949,-353.088 -186.949,-353.088 -192.949,-347.088 -192.949,-341.088 -192.949,-341.088 -192.949,-107.088 -192.949,-107.088 -192.949,-101.088 -186.949,-95.0878 -180.949,-95.0878"/>
<text text-anchor="middle" x="-124.449" y="-337.888" font-family="Times,serif" font-size="14.00">ClaimsController</text>
<polyline fill="none" stroke="black" points="-192.949,-330.088 -55.9487,-330.088 "/>
<text text-anchor="start" x="-184.949" y="-314.888" font-family="Times,serif" font-size="14.00">all_income_claims</text>
<text text-anchor="start" x="-184.949" y="-299.888" font-family="Times,serif" font-size="14.00">create</text>
<text text-anchor="start" x="-184.949" y="-284.888" font-family="Times,serif" font-size="14.00">crews_list</text>
<text text-anchor="start" x="-184.949" y="-269.888" font-family="Times,serif" font-size="14.00">edit</text>
<text text-anchor="start" x="-184.949" y="-254.888" font-family="Times,serif" font-size="14.00">index</text>
<text text-anchor="start" x="-184.949" y="-239.888" font-family="Times,serif" font-size="14.00">map</text>
<text text-anchor="start" x="-184.949" y="-224.888" font-family="Times,serif" font-size="14.00">new</text>
<text text-anchor="start" x="-184.949" y="-209.888" font-family="Times,serif" font-size="14.00">show</text>
<text text-anchor="start" x="-184.949" y="-194.888" font-family="Times,serif" font-size="14.00">thankyoupage</text>
<text text-anchor="start" x="-184.949" y="-179.888" font-family="Times,serif" font-size="14.00">update</text>
<polyline fill="none" stroke="black" points="-192.949,-172.088 -55.9487,-172.088 "/>
<polyline fill="none" stroke="black" points="-192.949,-148.088 -55.9487,-148.088 "/>
<text text-anchor="start" x="-184.949" y="-132.888" font-family="Times,serif" font-size="14.00">_layout</text>
<text text-anchor="start" x="-184.949" y="-117.888" font-family="Times,serif" font-size="14.00">claim_params</text>
<text text-anchor="start" x="-184.949" y="-102.888" font-family="Times,serif" font-size="14.00">claim_update_params</text>
</g>
<!-- ApplicationController&#45;&gt;ClaimsController -->
<g id="edge5" class="edge"><title>ApplicationController&#45;&gt;ClaimsController</title>
<path fill="none" stroke="black" d="M33.694,-23.8007C7.63453,-56.8049 -26.2318,-99.6964 -55.9355,-137.316"/>
</g>
</g>
</svg>
