<?xml version="1.0" encoding="UTF-8" standalone="no"?>
<!DOCTYPE svg PUBLIC "-//W3C//DTD SVG 1.1//EN"
 "http://www.w3.org/Graphics/SVG/1.1/DTD/svg11.dtd">
<!-- Generated by graphviz version 2.38.0 (20140413.2041)
 -->
<!-- Title: controllers_diagram Pages: 1 -->
<svg width="618pt" height="633pt"
 viewBox="0.00 0.00 618.00 633.00" xmlns="http://www.w3.org/2000/svg" xmlns:xlink="http://www.w3.org/1999/xlink">
<g id="graph0" class="graph" transform="scale(1 1) rotate(0) translate(238 377.5)">
<title>controllers_diagram</title>
<polygon fill="none" stroke="none" points="-238,255.5 -238,-377.5 380,-377.5 380,255.5 -238,255.5"/>
<!-- _diagram_info -->
<g id="node1" class="node"><title>_diagram_info</title>
<text text-anchor="start" x="170" y="-225.6" font-family="Times,serif" font-size="13.00">Controllers diagram</text>
<text text-anchor="start" x="170" y="-211.6" font-family="Times,serif" font-size="13.00">Date: May 19 2016 &#45; 00:52</text>
<text text-anchor="start" x="170" y="-197.6" font-family="Times,serif" font-size="13.00">Migration version: 20160512192317</text>
<text text-anchor="start" x="170" y="-183.6" font-family="Times,serif" font-size="13.00">Generated by RailRoady 1.4.2</text>
<text text-anchor="start" x="170" y="-169.6" font-family="Times,serif" font-size="13.00">http://railroady.prestonlee.com</text>
</g>
<!-- ApplicationController -->
<g id="node2" class="node"><title>ApplicationController</title>
<path fill="none" stroke="black" d="M120,251C120,251 232,251 232,251 238,251 244,245 244,239 244,239 244,155 244,155 244,149 238,143 232,143 232,143 120,143 120,143 114,143 108,149 108,155 108,155 108,239 108,239 108,245 114,251 120,251"/>
<text text-anchor="middle" x="176" y="158.2" font-family="Times,serif" font-size="14.00">ApplicationController</text>
<polyline fill="none" stroke="black" points="108,166 244,166 "/>
<text text-anchor="start" x="116" y="181.2" font-family="Times,serif" font-size="14.00">current_administrator</text>
<text text-anchor="start" x="116" y="196.2" font-family="Times,serif" font-size="14.00">require_administrator</text>
<polyline fill="none" stroke="black" points="108,204 244,204 "/>
<polyline fill="none" stroke="black" points="108,228 244,228 "/>
<text text-anchor="start" x="116" y="243.2" font-family="Times,serif" font-size="14.00">_layout</text>
</g>
<!-- StaticPagesController -->
<g id="node3" class="node"><title>StaticPagesController</title>
<path fill="none" stroke="black" d="M-222,-90.5C-222,-90.5 -112,-90.5 -112,-90.5 -106,-90.5 -100,-96.5 -100,-102.5 -100,-102.5 -100,-171.5 -100,-171.5 -100,-177.5 -106,-183.5 -112,-183.5 -112,-183.5 -222,-183.5 -222,-183.5 -228,-183.5 -234,-177.5 -234,-171.5 -234,-171.5 -234,-102.5 -234,-102.5 -234,-96.5 -228,-90.5 -222,-90.5"/>
<text text-anchor="middle" x="-167" y="-168.3" font-family="Times,serif" font-size="14.00">StaticPagesController</text>
<polyline fill="none" stroke="black" points="-234,-160.5 -100,-160.5 "/>
<text text-anchor="start" x="-226" y="-145.3" font-family="Times,serif" font-size="14.00">landing</text>
<polyline fill="none" stroke="black" points="-234,-137.5 -100,-137.5 "/>
<polyline fill="none" stroke="black" points="-234,-113.5 -100,-113.5 "/>
<text text-anchor="start" x="-226" y="-98.3" font-family="Times,serif" font-size="14.00">_layout</text>
</g>
<!-- AdministratorsController -->
<g id="node4" class="node"><title>AdministratorsController</title>
<path fill="none" stroke="black" d="M120,107C120,107 250,107 250,107 256,107 262,101 262,95 262,95 262,-109 262,-109 262,-115 256,-121 250,-121 250,-121 120,-121 120,-121 114,-121 108,-115 108,-109 108,-109 108,95 108,95 108,101 114,107 120,107"/>
<text text-anchor="middle" x="185" y="-105.8" font-family="Times,serif" font-size="14.00">AdministratorsController</text>
<polyline fill="none" stroke="black" points="108,-98 262,-98 "/>
<text text-anchor="start" x="116" y="-82.8" font-family="Times,serif" font-size="14.00">create</text>
<text text-anchor="start" x="116" y="-67.8" font-family="Times,serif" font-size="14.00">destroy</text>
<text text-anchor="start" x="116" y="-52.8" font-family="Times,serif" font-size="14.00">edit</text>
<text text-anchor="start" x="116" y="-37.8" font-family="Times,serif" font-size="14.00">index</text>
<text text-anchor="start" x="116" y="-22.8" font-family="Times,serif" font-size="14.00">new</text>
<text text-anchor="start" x="116" y="-7.8" font-family="Times,serif" font-size="14.00">show</text>
<text text-anchor="start" x="116" y="7.2" font-family="Times,serif" font-size="14.00">update</text>
<polyline fill="none" stroke="black" points="108,15 262,15 "/>
<polyline fill="none" stroke="black" points="108,39 262,39 "/>
<text text-anchor="start" x="116" y="54.2" font-family="Times,serif" font-size="14.00">_layout</text>
<text text-anchor="start" x="116" y="69.2" font-family="Times,serif" font-size="14.00">administrator_params</text>
<text text-anchor="start" x="116" y="84.2" font-family="Times,serif" font-size="14.00">correct_administrator</text>
<text text-anchor="start" x="116" y="99.2" font-family="Times,serif" font-size="14.00">correct_hr</text>
</g>
<!-- SessionsController -->
<g id="node5" class="node"><title>SessionsController</title>
<path fill="none" stroke="black" d="M-203.5,-217C-203.5,-217 -108.5,-217 -108.5,-217 -102.5,-217 -96.5,-223 -96.5,-229 -96.5,-229 -96.5,-343 -96.5,-343 -96.5,-349 -102.5,-355 -108.5,-355 -108.5,-355 -203.5,-355 -203.5,-355 -209.5,-355 -215.5,-349 -215.5,-343 -215.5,-343 -215.5,-229 -215.5,-229 -215.5,-223 -209.5,-217 -203.5,-217"/>
<text text-anchor="middle" x="-156" y="-339.8" font-family="Times,serif" font-size="14.00">SessionsController</text>
<polyline fill="none" stroke="black" points="-215.5,-332 -96.5,-332 "/>
<text text-anchor="start" x="-207.5" y="-316.8" font-family="Times,serif" font-size="14.00">create</text>
<text text-anchor="start" x="-207.5" y="-301.8" font-family="Times,serif" font-size="14.00">destroy</text>
<text text-anchor="start" x="-207.5" y="-286.8" font-family="Times,serif" font-size="14.00">landing</text>
<text text-anchor="start" x="-207.5" y="-271.8" font-family="Times,serif" font-size="14.00">new</text>
<polyline fill="none" stroke="black" points="-215.5,-264 -96.5,-264 "/>
<polyline fill="none" stroke="black" points="-215.5,-240 -96.5,-240 "/>
<text text-anchor="start" x="-207.5" y="-224.8" font-family="Times,serif" font-size="14.00">_layout</text>
</g>
<!-- CrewsController -->
<g id="node6" class="node"><title>CrewsController</title>
<path fill="none" stroke="black" d="M-42,-145C-42,-145 66,-145 66,-145 72,-145 78,-151 78,-157 78,-157 78,-361 78,-361 78,-367 72,-373 66,-373 66,-373 -42,-373 -42,-373 -48,-373 -54,-367 -54,-361 -54,-361 -54,-157 -54,-157 -54,-151 -48,-145 -42,-145"/>
<text text-anchor="middle" x="12" y="-357.8" font-family="Times,serif" font-size="14.00">CrewsController</text>
<polyline fill="none" stroke="black" points="-54,-350 78,-350 "/>
<text text-anchor="start" x="-46" y="-334.8" font-family="Times,serif" font-size="14.00">create</text>
<text text-anchor="start" x="-46" y="-319.8" font-family="Times,serif" font-size="14.00">destroy</text>
<text text-anchor="start" x="-46" y="-304.8" font-family="Times,serif" font-size="14.00">edit</text>
<text text-anchor="start" x="-46" y="-289.8" font-family="Times,serif" font-size="14.00">fulllist</text>
<text text-anchor="start" x="-46" y="-274.8" font-family="Times,serif" font-size="14.00">index</text>
<text text-anchor="start" x="-46" y="-259.8" font-family="Times,serif" font-size="14.00">new</text>
<text text-anchor="start" x="-46" y="-244.8" font-family="Times,serif" font-size="14.00">show</text>
<text text-anchor="start" x="-46" y="-229.8" font-family="Times,serif" font-size="14.00">update</text>
<polyline fill="none" stroke="black" points="-54,-222 78,-222 "/>
<polyline fill="none" stroke="black" points="-54,-198 78,-198 "/>
<text text-anchor="start" x="-46" y="-182.8" font-family="Times,serif" font-size="14.00">_layout</text>
<text text-anchor="start" x="-46" y="-167.8" font-family="Times,serif" font-size="14.00">crew_params</text>
<text text-anchor="start" x="-46" y="-152.8" font-family="Times,serif" font-size="14.00">crew_update_params</text>
</g>
<!-- ClaimsController -->
<g id="node7" class="node"><title>ClaimsController</title>
<path fill="none" stroke="black" d="M-59.5,143C-59.5,143 53.5,143 53.5,143 59.5,143 65.5,137 65.5,131 65.5,131 65.5,-103 65.5,-103 65.5,-109 59.5,-115 53.5,-115 53.5,-115 -59.5,-115 -59.5,-115 -65.5,-115 -71.5,-109 -71.5,-103 -71.5,-103 -71.5,131 -71.5,131 -71.5,137 -65.5,143 -59.5,143"/>
<text text-anchor="middle" x="-3" y="-99.8" font-family="Times,serif" font-size="14.00">ClaimsController</text>
<polyline fill="none" stroke="black" points="-71.5,-92 65.5,-92 "/>
<text text-anchor="start" x="-63.5" y="-76.8" font-family="Times,serif" font-size="14.00">all_income_claims</text>
<text text-anchor="start" x="-63.5" y="-61.8" font-family="Times,serif" font-size="14.00">create</text>
<text text-anchor="start" x="-63.5" y="-46.8" font-family="Times,serif" font-size="14.00">crews_list</text>
<text text-anchor="start" x="-63.5" y="-31.8" font-family="Times,serif" font-size="14.00">edit</text>
<text text-anchor="start" x="-63.5" y="-16.8" font-family="Times,serif" font-size="14.00">index</text>
<text text-anchor="start" x="-63.5" y="-1.8" font-family="Times,serif" font-size="14.00">map</text>
<text text-anchor="start" x="-63.5" y="13.2" font-family="Times,serif" font-size="14.00">new</text>
<text text-anchor="start" x="-63.5" y="28.2" font-family="Times,serif" font-size="14.00">show</text>
<text text-anchor="start" x="-63.5" y="43.2" font-family="Times,serif" font-size="14.00">thankyoupage</text>
<text text-anchor="start" x="-63.5" y="58.2" font-family="Times,serif" font-size="14.00">update</text>
<polyline fill="none" stroke="black" points="-71.5,66 65.5,66 "/>
<polyline fill="none" stroke="black" points="-71.5,90 65.5,90 "/>
<text text-anchor="start" x="-63.5" y="105.2" font-family="Times,serif" font-size="14.00">_layout</text>
<text text-anchor="start" x="-63.5" y="120.2" font-family="Times,serif" font-size="14.00">claim_params</text>
<text text-anchor="start" x="-63.5" y="135.2" font-family="Times,serif" font-size="14.00">claim_update_params</text>
</g>
</g>
</svg>
