<?xml version="1.0" encoding="UTF-8" standalone="no"?>
<!DOCTYPE svg PUBLIC "-//W3C//DTD SVG 1.1//EN"
 "http://www.w3.org/Graphics/SVG/1.1/DTD/svg11.dtd">
<!-- Generated by graphviz version 2.38.0 (20140413.2041)
 -->
<!-- Title: models_diagram Pages: 1 -->
<svg width="746pt" height="438pt"
 viewBox="0.00 0.00 746.00 438.00" xmlns="http://www.w3.org/2000/svg" xmlns:xlink="http://www.w3.org/1999/xlink">
<g id="graph0" class="graph" transform="scale(1 1) rotate(0) translate(4 434)">
<title>models_diagram</title>
<polygon fill="none" stroke="none" points="-4,4 -4,-434 742,-434 742,4 -4,4"/>
<!-- _diagram_info -->
<g id="node1" class="node"><title>_diagram_info</title>
<text text-anchor="start" x="8" y="-363.6" font-family="Times,serif" font-size="13.00">Models diagram</text>
<text text-anchor="start" x="8" y="-349.6" font-family="Times,serif" font-size="13.00">Date: May 19 2016 &#45; 00:52</text>
<text text-anchor="start" x="8" y="-335.6" font-family="Times,serif" font-size="13.00">Migration version: 20160512192317</text>
<text text-anchor="start" x="8" y="-321.6" font-family="Times,serif" font-size="13.00">Generated by RailRoady 1.4.2</text>
<text text-anchor="start" x="8" y="-307.6" font-family="Times,serif" font-size="13.00">http://railroady.prestonlee.com</text>
</g>
<!-- Crew -->
<g id="node2" class="node"><title>Crew</title>
<path fill="none" stroke="black" d="M244,-248.5C244,-248.5 464,-248.5 464,-248.5 470,-248.5 476,-254.5 476,-260.5 476,-260.5 476,-417.5 476,-417.5 476,-423.5 470,-429.5 464,-429.5 464,-429.5 244,-429.5 244,-429.5 238,-429.5 232,-423.5 232,-417.5 232,-417.5 232,-260.5 232,-260.5 232,-254.5 238,-248.5 244,-248.5"/>
<text text-anchor="middle" x="354" y="-414.3" font-family="Times,serif" font-size="14.00">Crew</text>
<polyline fill="none" stroke="black" points="232,-406.5 476,-406.5 "/>
<text text-anchor="start" x="240" y="-391.3" font-family="Times,serif" font-size="14.00">id :integer</text>
<text text-anchor="start" x="240" y="-376.3" font-family="Times,serif" font-size="14.00">car_number :character varying</text>
<text text-anchor="start" x="240" y="-361.3" font-family="Times,serif" font-size="14.00">vin_number :character varying</text>
<text text-anchor="start" x="240" y="-346.3" font-family="Times,serif" font-size="14.00">on_duty :boolean</text>
<text text-anchor="start" x="240" y="-331.3" font-family="Times,serif" font-size="14.00">on_a_mission :boolean</text>
<text text-anchor="start" x="240" y="-316.3" font-family="Times,serif" font-size="14.00">latitude :character varying</text>
<text text-anchor="start" x="240" y="-301.3" font-family="Times,serif" font-size="14.00">created_at :timestamp without time zone</text>
<text text-anchor="start" x="240" y="-286.3" font-family="Times,serif" font-size="14.00">updated_at :timestamp without time zone</text>
<text text-anchor="start" x="240" y="-271.3" font-family="Times,serif" font-size="14.00">longitude :character varying</text>
<text text-anchor="start" x="240" y="-256.3" font-family="Times,serif" font-size="14.00">crew_name :character varying</text>
</g>
<!-- Claim -->
<g id="node4" class="node"><title>Claim</title>
<path fill="none" stroke="black" d="M244,-0.5C244,-0.5 464,-0.5 464,-0.5 470,-0.5 476,-6.5 476,-12.5 476,-12.5 476,-199.5 476,-199.5 476,-205.5 470,-211.5 464,-211.5 464,-211.5 244,-211.5 244,-211.5 238,-211.5 232,-205.5 232,-199.5 232,-199.5 232,-12.5 232,-12.5 232,-6.5 238,-0.5 244,-0.5"/>
<text text-anchor="middle" x="354" y="-196.3" font-family="Times,serif" font-size="14.00">Claim</text>
<polyline fill="none" stroke="black" points="232,-188.5 476,-188.5 "/>
<text text-anchor="start" x="240" y="-173.3" font-family="Times,serif" font-size="14.00">id :integer</text>
<text text-anchor="start" x="240" y="-158.3" font-family="Times,serif" font-size="14.00">created_at :timestamp without time zone</text>
<text text-anchor="start" x="240" y="-143.3" font-family="Times,serif" font-size="14.00">updated_at :timestamp without time zone</text>
<text text-anchor="start" x="240" y="-128.3" font-family="Times,serif" font-size="14.00">lastname :character varying</text>
<text text-anchor="start" x="240" y="-113.3" font-family="Times,serif" font-size="14.00">phone :character varying</text>
<text text-anchor="start" x="240" y="-98.3" font-family="Times,serif" font-size="14.00">latitude :character varying</text>
<text text-anchor="start" x="240" y="-83.3" font-family="Times,serif" font-size="14.00">longitude :character varying</text>
<text text-anchor="start" x="240" y="-68.3" font-family="Times,serif" font-size="14.00">theme :character varying</text>
<text text-anchor="start" x="240" y="-53.3" font-family="Times,serif" font-size="14.00">text :text</text>
<text text-anchor="start" x="240" y="-38.3" font-family="Times,serif" font-size="14.00">crew_id :integer</text>
<text text-anchor="start" x="240" y="-23.3" font-family="Times,serif" font-size="14.00">administrator_id :integer</text>
<text text-anchor="start" x="240" y="-8.3" font-family="Times,serif" font-size="14.00">status :boolean</text>
</g>
<!-- Crew&#45;&gt;Claim -->
<g id="edge1" class="edge"><title>Crew&#45;&gt;Claim</title>
<path fill="none" stroke="#091b88" d="M354,-238.112C354,-232.757 354,-227.356 354,-221.957"/>
<polygon fill="#091b88" stroke="#091b88" points="354,-238.359 349.5,-248.359 354,-243.359 354,-248.359 354,-248.359 354,-248.359 354,-243.359 358.5,-248.359 354,-238.359 354,-238.359"/>
<polygon fill="#091b88" stroke="#091b88" points="354,-221.589 358.5,-211.589 354,-216.589 354,-211.589 354,-211.589 354,-211.589 354,-216.589 349.5,-211.589 354,-221.589 354,-221.589"/>
</g>
<!-- Administrator -->
<g id="node3" class="node"><title>Administrator</title>
<path fill="none" stroke="black" d="M506,-256C506,-256 726,-256 726,-256 732,-256 738,-262 738,-268 738,-268 738,-410 738,-410 738,-416 732,-422 726,-422 726,-422 506,-422 506,-422 500,-422 494,-416 494,-410 494,-410 494,-268 494,-268 494,-262 500,-256 506,-256"/>
<text text-anchor="middle" x="616" y="-406.8" font-family="Times,serif" font-size="14.00">Administrator</text>
<polyline fill="none" stroke="black" points="494,-399 738,-399 "/>
<text text-anchor="start" x="502" y="-383.8" font-family="Times,serif" font-size="14.00">id :integer</text>
<text text-anchor="start" x="502" y="-368.8" font-family="Times,serif" font-size="14.00">lastname :character varying</text>
<text text-anchor="start" x="502" y="-353.8" font-family="Times,serif" font-size="14.00">login :character varying</text>
<text text-anchor="start" x="502" y="-338.8" font-family="Times,serif" font-size="14.00">password_digest :character varying</text>
<text text-anchor="start" x="502" y="-323.8" font-family="Times,serif" font-size="14.00">created_at :timestamp without time zone</text>
<text text-anchor="start" x="502" y="-308.8" font-family="Times,serif" font-size="14.00">updated_at :timestamp without time zone</text>
<text text-anchor="start" x="502" y="-293.8" font-family="Times,serif" font-size="14.00">personal_number :character varying</text>
<text text-anchor="start" x="502" y="-278.8" font-family="Times,serif" font-size="14.00">rank :integer</text>
<text text-anchor="start" x="502" y="-263.8" font-family="Times,serif" font-size="14.00">fired :boolean</text>
</g>
</g>
</svg>
