<?xml version="1.0" encoding="UTF-8" standalone="no"?>
<!DOCTYPE svg PUBLIC "-//W3C//DTD SVG 1.1//EN"
 "http://www.w3.org/Graphics/SVG/1.1/DTD/svg11.dtd">
<!-- Generated by graphviz version 2.38.0 (20140413.2041)
 -->
<!-- Title: models_diagram Pages: 1 -->
<svg width="746pt" height="656pt"
 viewBox="0.00 0.00 746.00 656.00" xmlns="http://www.w3.org/2000/svg" xmlns:xlink="http://www.w3.org/1999/xlink">
<g id="graph0" class="graph" transform="scale(1 1) rotate(0) translate(4 652)">
<title>models_diagram</title>
<polygon fill="none" stroke="none" points="-4,4 -4,-652 742,-652 742,4 -4,4"/>
<!-- _diagram_info -->
<g id="node1" class="node"><title>_diagram_info</title>
<text text-anchor="start" x="8" y="-589.1" font-family="Times,serif" font-size="13.00">Models diagram</text>
<text text-anchor="start" x="8" y="-575.1" font-family="Times,serif" font-size="13.00">Date: Mar 26 2017 &#45; 14:30</text>
<text text-anchor="start" x="8" y="-561.1" font-family="Times,serif" font-size="13.00">Migration version: 20170325114656</text>
<text text-anchor="start" x="8" y="-547.1" font-family="Times,serif" font-size="13.00">Generated by RailRoady 1.4.2</text>
<text text-anchor="start" x="8" y="-533.1" font-family="Times,serif" font-size="13.00">http://railroady.prestonlee.com</text>
</g>
<!-- Investigator -->
<g id="node2" class="node"><title>Investigator</title>
<path fill="none" stroke="black" d="M244,-519C244,-519 464,-519 464,-519 470,-519 476,-525 476,-531 476,-531 476,-598 476,-598 476,-604 470,-610 464,-610 464,-610 244,-610 244,-610 238,-610 232,-604 232,-598 232,-598 232,-531 232,-531 232,-525 238,-519 244,-519"/>
<text text-anchor="middle" x="354" y="-594.8" font-family="Times,serif" font-size="14.00">Investigator</text>
<polyline fill="none" stroke="black" points="232,-587 476,-587 "/>
<text text-anchor="start" x="240" y="-571.8" font-family="Times,serif" font-size="14.00">id :integer</text>
<text text-anchor="start" x="240" y="-556.8" font-family="Times,serif" font-size="14.00">created_at :timestamp without time zone</text>
<text text-anchor="start" x="240" y="-541.8" font-family="Times,serif" font-size="14.00">updated_at :timestamp without time zone</text>
<text text-anchor="start" x="240" y="-526.8" font-family="Times,serif" font-size="14.00">lastname :character varying</text>
</g>
<!-- Claim -->
<g id="node3" class="node"><title>Claim</title>
<path fill="none" stroke="black" d="M300,-233.5C300,-233.5 520,-233.5 520,-233.5 526,-233.5 532,-239.5 532,-245.5 532,-245.5 532,-432.5 532,-432.5 532,-438.5 526,-444.5 520,-444.5 520,-444.5 300,-444.5 300,-444.5 294,-444.5 288,-438.5 288,-432.5 288,-432.5 288,-245.5 288,-245.5 288,-239.5 294,-233.5 300,-233.5"/>
<text text-anchor="middle" x="410" y="-429.3" font-family="Times,serif" font-size="14.00">Claim</text>
<polyline fill="none" stroke="black" points="288,-421.5 532,-421.5 "/>
<text text-anchor="start" x="296" y="-406.3" font-family="Times,serif" font-size="14.00">id :integer</text>
<text text-anchor="start" x="296" y="-391.3" font-family="Times,serif" font-size="14.00">created_at :timestamp without time zone</text>
<text text-anchor="start" x="296" y="-376.3" font-family="Times,serif" font-size="14.00">updated_at :timestamp without time zone</text>
<text text-anchor="start" x="296" y="-361.3" font-family="Times,serif" font-size="14.00">lastname :character varying</text>
<text text-anchor="start" x="296" y="-346.3" font-family="Times,serif" font-size="14.00">phone :character varying</text>
<text text-anchor="start" x="296" y="-331.3" font-family="Times,serif" font-size="14.00">latitude :character varying</text>
<text text-anchor="start" x="296" y="-316.3" font-family="Times,serif" font-size="14.00">longitude :character varying</text>
<text text-anchor="start" x="296" y="-301.3" font-family="Times,serif" font-size="14.00">theme :character varying</text>
<text text-anchor="start" x="296" y="-286.3" font-family="Times,serif" font-size="14.00">text :text</text>
<text text-anchor="start" x="296" y="-271.3" font-family="Times,serif" font-size="14.00">administrator_id :integer</text>
<text text-anchor="start" x="296" y="-256.3" font-family="Times,serif" font-size="14.00">status :boolean</text>
<text text-anchor="start" x="296" y="-241.3" font-family="Times,serif" font-size="14.00">investigator_id :integer</text>
</g>
<!-- Investigator&#45;&gt;Claim -->
<g id="edge1" class="edge"><title>Investigator&#45;&gt;Claim</title>
<path fill="none" stroke="#9ee21a" d="M367.201,-510.815C371.454,-493.839 376.347,-474.311 381.27,-454.662"/>
<ellipse fill="none" stroke="#9ee21a" cx="366.17" cy="-514.929" rx="4.00001" ry="4.00001"/>
<polygon fill="#9ee21a" stroke="#9ee21a" points="381.335,-454.405 388.13,-445.799 382.55,-449.555 383.765,-444.705 383.765,-444.705 383.765,-444.705 382.55,-449.555 379.4,-443.611 381.335,-454.405 381.335,-454.405"/>
</g>
<!-- Access -->
<g id="node4" class="node"><title>Access</title>
<path fill="none" stroke="black" d="M506,-38C506,-38 726,-38 726,-38 732,-38 738,-44 738,-50 738,-50 738,-147 738,-147 738,-153 732,-159 726,-159 726,-159 506,-159 506,-159 500,-159 494,-153 494,-147 494,-147 494,-50 494,-50 494,-44 500,-38 506,-38"/>
<text text-anchor="middle" x="616" y="-143.8" font-family="Times,serif" font-size="14.00">Access</text>
<polyline fill="none" stroke="black" points="494,-136 738,-136 "/>
<text text-anchor="start" x="502" y="-120.8" font-family="Times,serif" font-size="14.00">id :integer</text>
<text text-anchor="start" x="502" y="-105.8" font-family="Times,serif" font-size="14.00">claim_id :integer</text>
<text text-anchor="start" x="502" y="-90.8" font-family="Times,serif" font-size="14.00">created_at :timestamp without time zone</text>
<text text-anchor="start" x="502" y="-75.8" font-family="Times,serif" font-size="14.00">updated_at :timestamp without time zone</text>
<text text-anchor="start" x="502" y="-60.8" font-family="Times,serif" font-size="14.00">expiration :timestamp without time zone</text>
<text text-anchor="start" x="502" y="-45.8" font-family="Times,serif" font-size="14.00">administrator_id :integer</text>
</g>
<!-- Claim&#45;&gt;Access -->
<g id="edge3" class="edge"><title>Claim&#45;&gt;Access</title>
<path fill="none" stroke="#bcb1d2" d="M505.769,-227.122C523.95,-206.072 542.434,-184.672 558.939,-165.564"/>
<ellipse fill="none" stroke="#bcb1d2" cx="502.969" cy="-230.363" rx="4.00002" ry="4.00002"/>
<ellipse fill="#bcb1d2" stroke="#bcb1d2" cx="561.842" cy="-162.202" rx="4.00002" ry="4.00002"/>
</g>
<!-- Crew -->
<g id="node6" class="node"><title>Crew</title>
<path fill="none" stroke="black" d="M244,-0.5C244,-0.5 464,-0.5 464,-0.5 470,-0.5 476,-6.5 476,-12.5 476,-12.5 476,-184.5 476,-184.5 476,-190.5 470,-196.5 464,-196.5 464,-196.5 244,-196.5 244,-196.5 238,-196.5 232,-190.5 232,-184.5 232,-184.5 232,-12.5 232,-12.5 232,-6.5 238,-0.5 244,-0.5"/>
<text text-anchor="middle" x="354" y="-181.3" font-family="Times,serif" font-size="14.00">Crew</text>
<polyline fill="none" stroke="black" points="232,-173.5 476,-173.5 "/>
<text text-anchor="start" x="240" y="-158.3" font-family="Times,serif" font-size="14.00">id :integer</text>
<text text-anchor="start" x="240" y="-143.3" font-family="Times,serif" font-size="14.00">car_number :character varying</text>
<text text-anchor="start" x="240" y="-128.3" font-family="Times,serif" font-size="14.00">vin_number :character varying</text>
<text text-anchor="start" x="240" y="-113.3" font-family="Times,serif" font-size="14.00">on_duty :boolean</text>
<text text-anchor="start" x="240" y="-98.3" font-family="Times,serif" font-size="14.00">on_a_mission :boolean</text>
<text text-anchor="start" x="240" y="-83.3" font-family="Times,serif" font-size="14.00">latitude :character varying</text>
<text text-anchor="start" x="240" y="-68.3" font-family="Times,serif" font-size="14.00">created_at :timestamp without time zone</text>
<text text-anchor="start" x="240" y="-53.3" font-family="Times,serif" font-size="14.00">updated_at :timestamp without time zone</text>
<text text-anchor="start" x="240" y="-38.3" font-family="Times,serif" font-size="14.00">longitude :character varying</text>
<text text-anchor="start" x="240" y="-23.3" font-family="Times,serif" font-size="14.00">crew_name :character varying</text>
<text text-anchor="start" x="240" y="-8.3" font-family="Times,serif" font-size="14.00">deleted :boolean</text>
</g>
<!-- Claim&#45;&gt;Crew -->
<g id="edge2" class="edge"><title>Claim&#45;&gt;Crew</title>
<path fill="none" stroke="#ec1135" d="M383.091,-223.396C381.788,-217.849 380.483,-212.289 379.186,-206.764"/>
<polygon fill="#ec1135" stroke="#ec1135" points="383.152,-223.655 381.057,-234.419 384.295,-228.523 385.438,-233.39 385.438,-233.39 385.438,-233.39 384.295,-228.523 389.818,-232.362 383.152,-223.655 383.152,-223.655"/>
<polygon fill="#ec1135" stroke="#ec1135" points="379.148,-206.601 381.242,-195.837 378.005,-201.733 376.862,-196.866 376.862,-196.866 376.862,-196.866 378.005,-201.733 372.481,-197.895 379.148,-206.601 379.148,-206.601"/>
</g>
<!-- Administrator -->
<g id="node5" class="node"><title>Administrator</title>
<path fill="none" stroke="black" d="M506,-481.5C506,-481.5 726,-481.5 726,-481.5 732,-481.5 738,-487.5 738,-493.5 738,-493.5 738,-635.5 738,-635.5 738,-641.5 732,-647.5 726,-647.5 726,-647.5 506,-647.5 506,-647.5 500,-647.5 494,-641.5 494,-635.5 494,-635.5 494,-493.5 494,-493.5 494,-487.5 500,-481.5 506,-481.5"/>
<text text-anchor="middle" x="616" y="-632.3" font-family="Times,serif" font-size="14.00">Administrator</text>
<polyline fill="none" stroke="black" points="494,-624.5 738,-624.5 "/>
<text text-anchor="start" x="502" y="-609.3" font-family="Times,serif" font-size="14.00">id :integer</text>
<text text-anchor="start" x="502" y="-594.3" font-family="Times,serif" font-size="14.00">lastname :character varying</text>
<text text-anchor="start" x="502" y="-579.3" font-family="Times,serif" font-size="14.00">login :character varying</text>
<text text-anchor="start" x="502" y="-564.3" font-family="Times,serif" font-size="14.00">password_digest :character varying</text>
<text text-anchor="start" x="502" y="-549.3" font-family="Times,serif" font-size="14.00">created_at :timestamp without time zone</text>
<text text-anchor="start" x="502" y="-534.3" font-family="Times,serif" font-size="14.00">updated_at :timestamp without time zone</text>
<text text-anchor="start" x="502" y="-519.3" font-family="Times,serif" font-size="14.00">personal_number :character varying</text>
<text text-anchor="start" x="502" y="-504.3" font-family="Times,serif" font-size="14.00">rank :integer</text>
<text text-anchor="start" x="502" y="-489.3" font-family="Times,serif" font-size="14.00">fired :boolean</text>
</g>
<!-- Administrator&#45;&gt;Claim -->
<g id="edge4" class="edge"><title>Administrator&#45;&gt;Claim</title>
<path fill="none" stroke="#1bb283" d="M534.717,-475.311C527.729,-467.731 520.602,-459.998 513.472,-452.263"/>
<ellipse fill="none" stroke="#1bb283" cx="537.46" cy="-478.288" rx="4.00002" ry="4.00002"/>
<polygon fill="#1bb283" stroke="#1bb283" points="513.124,-451.884 509.655,-441.482 509.735,-448.208 506.347,-444.531 506.347,-444.531 506.347,-444.531 509.735,-448.208 503.038,-447.581 513.124,-451.884 513.124,-451.884"/>
</g>
<!-- Administrator&#45;&gt;Access -->
<g id="edge5" class="edge"><title>Administrator&#45;&gt;Access</title>
<path fill="none" stroke="#7451ea" d="M616,-473.086C616,-384.142 616,-250.24 616,-169.225"/>
<ellipse fill="none" stroke="#7451ea" cx="616" cy="-477.348" rx="4" ry="4"/>
<polygon fill="#7451ea" stroke="#7451ea" points="616,-169.128 620.5,-159.128 616,-164.128 616,-159.128 616,-159.128 616,-159.128 616,-164.128 611.5,-159.128 616,-169.128 616,-169.128"/>
</g>
</g>
</svg>
