<?xml version="1.0" encoding="UTF-8" standalone="no"?>
<!DOCTYPE svg PUBLIC "-//W3C//DTD SVG 1.1//EN"
 "http://www.w3.org/Graphics/SVG/1.1/DTD/svg11.dtd">
<!-- Generated by graphviz version 2.38.0 (20140413.2041)
 -->
<!-- Title: models_diagram Pages: 1 -->
<svg width="438pt" height="158pt"
 viewBox="0.00 0.00 438.44 158.00" xmlns="http://www.w3.org/2000/svg" xmlns:xlink="http://www.w3.org/1999/xlink">
<g id="graph0" class="graph" transform="scale(1 1) rotate(0) translate(4 154)">
<title>models_diagram</title>
<polygon fill="none" stroke="none" points="-4,4 -4,-154 434.445,-154 434.445,4 -4,4"/>
<!-- _diagram_info -->
<g id="node1" class="node"><title>_diagram_info</title>
<text text-anchor="start" x="8" y="-135.6" font-family="Times,serif" font-size="13.00">Models diagram</text>
<text text-anchor="start" x="8" y="-121.6" font-family="Times,serif" font-size="13.00">Date: May 19 2016 &#45; 00:52</text>
<text text-anchor="start" x="8" y="-107.6" font-family="Times,serif" font-size="13.00">Migration version: 20160512192317</text>
<text text-anchor="start" x="8" y="-93.6" font-family="Times,serif" font-size="13.00">Generated by RailRoady 1.4.2</text>
<text text-anchor="start" x="8" y="-79.6" font-family="Times,serif" font-size="13.00">http://railroady.prestonlee.com</text>
</g>
<!-- Crew -->
<g id="node2" class="node"><title>Crew</title>
<ellipse fill="none" stroke="black" cx="262" cy="-111" rx="29.795" ry="18"/>
<text text-anchor="middle" x="262" y="-107.3" font-family="Times,serif" font-size="14.00">Crew</text>
</g>
<!-- Claim -->
<g id="node4" class="node"><title>Claim</title>
<ellipse fill="none" stroke="black" cx="262" cy="-18" rx="32.4942" ry="18"/>
<text text-anchor="middle" x="262" y="-14.3" font-family="Times,serif" font-size="14.00">Claim</text>
</g>
<!-- Crew&#45;&gt;Claim -->
<g id="edge1" class="edge"><title>Crew&#45;&gt;Claim</title>
<path fill="none" stroke="#587d90" d="M262,-82.5485C262,-71.0829 262,-57.7923 262,-46.3387"/>
<polygon fill="#587d90" stroke="#587d90" points="262,-82.8836 257.5,-92.8836 262,-87.8836 262,-92.8836 262,-92.8836 262,-92.8836 262,-87.8836 266.5,-92.8836 262,-82.8836 262,-82.8836"/>
<polygon fill="#587d90" stroke="#587d90" points="262,-46.0397 266.5,-36.0396 262,-41.0397 262,-36.0397 262,-36.0397 262,-36.0397 262,-41.0397 257.5,-36.0397 262,-46.0397 262,-46.0397"/>
</g>
<!-- Administrator -->
<g id="node3" class="node"><title>Administrator</title>
<ellipse fill="none" stroke="black" cx="370" cy="-111" rx="60.3893" ry="18"/>
<text text-anchor="middle" x="370" y="-107.3" font-family="Times,serif" font-size="14.00">Administrator</text>
</g>
</g>
</svg>
