<?xml version="1.0" encoding="UTF-8" standalone="no"?>
<!DOCTYPE svg PUBLIC "-//W3C//DTD SVG 1.1//EN"
 "http://www.w3.org/Graphics/SVG/1.1/DTD/svg11.dtd">
<!-- Generated by graphviz version 2.38.0 (20140413.2041)
 -->
<!-- Title: models_diagram Pages: 1 -->
<svg width="552pt" height="552pt"
 viewBox="0.00 0.00 551.97 552.00" xmlns="http://www.w3.org/2000/svg" xmlns:xlink="http://www.w3.org/1999/xlink">
<g id="graph0" class="graph" transform="scale(1 1) rotate(0) translate(4 548)">
<title>models_diagram</title>
<polygon fill="none" stroke="none" points="-4,4 -4,-548 547.967,-548 547.967,4 -4,4"/>
<!-- _diagram_info -->
<g id="node1" class="node"><title>_diagram_info</title>
<text text-anchor="start" x="79" y="-529.6" font-family="Times,serif" font-size="13.00">Models diagram</text>
<text text-anchor="start" x="79" y="-515.6" font-family="Times,serif" font-size="13.00">Date: May 19 2016 &#45; 01:22</text>
<text text-anchor="start" x="79" y="-501.6" font-family="Times,serif" font-size="13.00">Migration version: 20160512192317</text>
<text text-anchor="start" x="79" y="-487.6" font-family="Times,serif" font-size="13.00">Generated by RailRoady 1.4.2</text>
<text text-anchor="start" x="79" y="-473.6" font-family="Times,serif" font-size="13.00">http://railroady.prestonlee.com</text>
</g>
<!-- Crew -->
<g id="node2" class="node"><title>Crew</title>
<path fill="none" stroke="black" d="M12,-248.5C12,-248.5 232,-248.5 232,-248.5 238,-248.5 244,-254.5 244,-260.5 244,-260.5 244,-417.5 244,-417.5 244,-423.5 238,-429.5 232,-429.5 232,-429.5 12,-429.5 12,-429.5 6,-429.5 0,-423.5 0,-417.5 0,-417.5 0,-260.5 0,-260.5 0,-254.5 6,-248.5 12,-248.5"/>
<text text-anchor="middle" x="122" y="-414.3" font-family="Times,serif" font-size="14.00">Crew</text>
<polyline fill="none" stroke="black" points="0,-406.5 244,-406.5 "/>
<text text-anchor="start" x="8" y="-391.3" font-family="Times,serif" font-size="14.00">id :integer</text>
<text text-anchor="start" x="8" y="-376.3" font-family="Times,serif" font-size="14.00">car_number :character varying</text>
<text text-anchor="start" x="8" y="-361.3" font-family="Times,serif" font-size="14.00">vin_number :character varying</text>
<text text-anchor="start" x="8" y="-346.3" font-family="Times,serif" font-size="14.00">on_duty :boolean</text>
<text text-anchor="start" x="8" y="-331.3" font-family="Times,serif" font-size="14.00">on_a_mission :boolean</text>
<text text-anchor="start" x="8" y="-316.3" font-family="Times,serif" font-size="14.00">latitude :character varying</text>
<text text-anchor="start" x="8" y="-301.3" font-family="Times,serif" font-size="14.00">created_at :timestamp without time zone</text>
<text text-anchor="start" x="8" y="-286.3" font-family="Times,serif" font-size="14.00">updated_at :timestamp without time zone</text>
<text text-anchor="start" x="8" y="-271.3" font-family="Times,serif" font-size="14.00">longitude :character varying</text>
<text text-anchor="start" x="8" y="-256.3" font-family="Times,serif" font-size="14.00">crew_name :character varying</text>
</g>
<!-- Claim -->
<g id="node4" class="node"><title>Claim</title>
<path fill="none" stroke="black" d="M218,-0.5C218,-0.5 438,-0.5 438,-0.5 444,-0.5 450,-6.5 450,-12.5 450,-12.5 450,-199.5 450,-199.5 450,-205.5 444,-211.5 438,-211.5 438,-211.5 218,-211.5 218,-211.5 212,-211.5 206,-205.5 206,-199.5 206,-199.5 206,-12.5 206,-12.5 206,-6.5 212,-0.5 218,-0.5"/>
<text text-anchor="middle" x="328" y="-196.3" font-family="Times,serif" font-size="14.00">Claim</text>
<polyline fill="none" stroke="black" points="206,-188.5 450,-188.5 "/>
<text text-anchor="start" x="214" y="-173.3" font-family="Times,serif" font-size="14.00">id :integer</text>
<text text-anchor="start" x="214" y="-158.3" font-family="Times,serif" font-size="14.00">created_at :timestamp without time zone</text>
<text text-anchor="start" x="214" y="-143.3" font-family="Times,serif" font-size="14.00">updated_at :timestamp without time zone</text>
<text text-anchor="start" x="214" y="-128.3" font-family="Times,serif" font-size="14.00">lastname :character varying</text>
<text text-anchor="start" x="214" y="-113.3" font-family="Times,serif" font-size="14.00">phone :character varying</text>
<text text-anchor="start" x="214" y="-98.3" font-family="Times,serif" font-size="14.00">latitude :character varying</text>
<text text-anchor="start" x="214" y="-83.3" font-family="Times,serif" font-size="14.00">longitude :character varying</text>
<text text-anchor="start" x="214" y="-68.3" font-family="Times,serif" font-size="14.00">theme :character varying</text>
<text text-anchor="start" x="214" y="-53.3" font-family="Times,serif" font-size="14.00">text :text</text>
<text text-anchor="start" x="214" y="-38.3" font-family="Times,serif" font-size="14.00">crew_id :integer</text>
<text text-anchor="start" x="214" y="-23.3" font-family="Times,serif" font-size="14.00">administrator_id :integer</text>
<text text-anchor="start" x="214" y="-8.3" font-family="Times,serif" font-size="14.00">status :boolean</text>
</g>
<!-- Crew&#45;&gt;Claim -->
<g id="edge1" class="edge"><title>Crew&#45;&gt;Claim</title>
<path fill="none" stroke="#4ecd34" d="M208.781,-240.687C215.08,-233.623 221.463,-226.467 227.831,-219.326"/>
<polygon fill="#4ecd34" stroke="#4ecd34" points="208.596,-240.895 198.581,-245.364 205.268,-244.627 201.94,-248.359 201.94,-248.359 201.94,-248.359 205.268,-244.627 205.298,-251.354 208.596,-240.895 208.596,-240.895"/>
<polygon fill="#4ecd34" stroke="#4ecd34" points="228.074,-219.053 238.089,-214.584 231.402,-215.321 234.73,-211.589 234.73,-211.589 234.73,-211.589 231.402,-215.321 231.371,-208.594 228.074,-219.053 228.074,-219.053"/>
</g>
<!-- Administrator -->
<g id="node3" class="node"><title>Administrator</title>
<path fill="none" stroke="black" d="M274,-256C274,-256 494,-256 494,-256 500,-256 506,-262 506,-268 506,-268 506,-410 506,-410 506,-416 500,-422 494,-422 494,-422 274,-422 274,-422 268,-422 262,-416 262,-410 262,-410 262,-268 262,-268 262,-262 268,-256 274,-256"/>
<text text-anchor="middle" x="384" y="-406.8" font-family="Times,serif" font-size="14.00">Administrator</text>
<polyline fill="none" stroke="black" points="262,-399 506,-399 "/>
<text text-anchor="start" x="270" y="-383.8" font-family="Times,serif" font-size="14.00">id :integer</text>
<text text-anchor="start" x="270" y="-368.8" font-family="Times,serif" font-size="14.00">lastname :character varying</text>
<text text-anchor="start" x="270" y="-353.8" font-family="Times,serif" font-size="14.00">login :character varying</text>
<text text-anchor="start" x="270" y="-338.8" font-family="Times,serif" font-size="14.00">password_digest :character varying</text>
<text text-anchor="start" x="270" y="-323.8" font-family="Times,serif" font-size="14.00">created_at :timestamp without time zone</text>
<text text-anchor="start" x="270" y="-308.8" font-family="Times,serif" font-size="14.00">updated_at :timestamp without time zone</text>
<text text-anchor="start" x="270" y="-293.8" font-family="Times,serif" font-size="14.00">personal_number :character varying</text>
<text text-anchor="start" x="270" y="-278.8" font-family="Times,serif" font-size="14.00">rank :integer</text>
<text text-anchor="start" x="270" y="-263.8" font-family="Times,serif" font-size="14.00">fired :boolean</text>
</g>
<!-- ActiveRecord::Base -->
<g id="node5" class="node"><title>ActiveRecord::Base</title>
<ellipse fill="none" stroke="black" cx="384" cy="-505" rx="81.4863" ry="18"/>
<text text-anchor="middle" x="384" y="-501.3" font-family="Times,serif" font-size="14.00">ActiveRecord::Base</text>
</g>
<!-- ActiveRecord::Base&#45;&gt;Crew -->
<g id="edge2" class="edge"><title>ActiveRecord::Base&#45;&gt;Crew</title>
<path fill="none" stroke="black" d="M354.172,-488.122C327.335,-473.608 287.012,-451.233 253,-430 250.074,-428.173 247.122,-426.311 244.152,-424.42"/>
</g>
<!-- ActiveRecord::Base&#45;&gt;Administrator -->
<g id="edge3" class="edge"><title>ActiveRecord::Base&#45;&gt;Administrator</title>
<path fill="none" stroke="black" d="M384,-486.759C384,-471.051 384,-446.64 384,-422.204"/>
</g>
<!-- ActiveRecord::Base&#45;&gt;Claim -->
<g id="edge4" class="edge"><title>ActiveRecord::Base&#45;&gt;Claim</title>
<path fill="none" stroke="black" d="M432.219,-490.444C461.767,-479.369 497.225,-460.456 515,-430 555.773,-360.139 551.082,-320.396 515,-248 500.309,-218.524 476.194,-193.584 450.088,-173.262"/>
</g>
</g>
</svg>
