<?xml version="1.0" encoding="UTF-8" standalone="no"?>
<!DOCTYPE svg PUBLIC "-//W3C//DTD SVG 1.1//EN"
 "http://www.w3.org/Graphics/SVG/1.1/DTD/svg11.dtd">
<!-- Generated by graphviz version 2.38.0 (20140413.2041)
 -->
<!-- Title: models_diagram Pages: 1 -->
<svg width="402pt" height="230pt"
 viewBox="0.00 0.00 402.24 230.00" xmlns="http://www.w3.org/2000/svg" xmlns:xlink="http://www.w3.org/1999/xlink">
<g id="graph0" class="graph" transform="scale(1 1) rotate(0) translate(4 226)">
<title>models_diagram</title>
<polygon fill="none" stroke="none" points="-4,4 -4,-226 398.243,-226 398.243,4 -4,4"/>
<!-- _diagram_info -->
<g id="node1" class="node"><title>_diagram_info</title>
<text text-anchor="start" x="8" y="-207.6" font-family="Times,serif" font-size="13.00">Models diagram</text>
<text text-anchor="start" x="8" y="-193.6" font-family="Times,serif" font-size="13.00">Date: May 19 2016 &#45; 01:22</text>
<text text-anchor="start" x="8" y="-179.6" font-family="Times,serif" font-size="13.00">Migration version: 20160512192317</text>
<text text-anchor="start" x="8" y="-165.6" font-family="Times,serif" font-size="13.00">Generated by RailRoady 1.4.2</text>
<text text-anchor="start" x="8" y="-151.6" font-family="Times,serif" font-size="13.00">http://railroady.prestonlee.com</text>
</g>
<!-- Crew -->
<g id="node2" class="node"><title>Crew</title>
<ellipse fill="none" stroke="black" cx="205" cy="-90" rx="29.795" ry="18"/>
<text text-anchor="middle" x="205" y="-86.3" font-family="Times,serif" font-size="14.00">Crew</text>
</g>
<!-- Claim -->
<g id="node4" class="node"><title>Claim</title>
<ellipse fill="none" stroke="black" cx="303" cy="-18" rx="32.4942" ry="18"/>
<text text-anchor="middle" x="303" y="-14.3" font-family="Times,serif" font-size="14.00">Claim</text>
</g>
<!-- Crew&#45;&gt;Claim -->
<g id="edge1" class="edge"><title>Crew&#45;&gt;Claim</title>
<path fill="none" stroke="#d02191" d="M232.058,-69.6732C245.537,-60.0447 261.809,-48.4219 275.367,-38.7377"/>
<polygon fill="#d02191" stroke="#d02191" points="232.033,-69.6909 221.28,-71.8415 227.964,-72.5971 223.895,-75.5033 223.895,-75.5033 223.895,-75.5033 227.964,-72.5971 226.511,-79.1651 232.033,-69.6909 232.033,-69.6909"/>
<polygon fill="#d02191" stroke="#d02191" points="275.691,-38.5065 286.444,-36.3559 279.76,-35.6003 283.828,-32.6941 283.828,-32.6941 283.828,-32.6941 279.76,-35.6003 281.213,-29.0323 275.691,-38.5065 275.691,-38.5065"/>
</g>
<!-- Administrator -->
<g id="node3" class="node"><title>Administrator</title>
<ellipse fill="none" stroke="black" cx="313" cy="-90" rx="60.3893" ry="18"/>
<text text-anchor="middle" x="313" y="-86.3" font-family="Times,serif" font-size="14.00">Administrator</text>
</g>
<!-- ActiveRecord::Base -->
<g id="node5" class="node"><title>ActiveRecord::Base</title>
<ellipse fill="none" stroke="black" cx="313" cy="-183" rx="81.4863" ry="18"/>
<text text-anchor="middle" x="313" y="-179.3" font-family="Times,serif" font-size="14.00">ActiveRecord::Base</text>
</g>
<!-- ActiveRecord::Base&#45;&gt;Crew -->
<g id="edge2" class="edge"><title>ActiveRecord::Base&#45;&gt;Crew</title>
<path fill="none" stroke="black" d="M293.442,-165.521C273.018,-148.311 241.312,-121.596 221.927,-105.263"/>
</g>
<!-- ActiveRecord::Base&#45;&gt;Administrator -->
<g id="edge3" class="edge"><title>ActiveRecord::Base&#45;&gt;Administrator</title>
<path fill="none" stroke="black" d="M313,-164.884C313,-148.614 313,-124.284 313,-108.04"/>
</g>
<!-- ActiveRecord::Base&#45;&gt;Claim -->
<g id="edge4" class="edge"><title>ActiveRecord::Base&#45;&gt;Claim</title>
<path fill="none" stroke="black" d="M335.844,-165.661C362.389,-144.549 400.352,-106.412 382,-72 370.964,-51.3064 347.864,-37.2628 329.48,-28.8588"/>
</g>
</g>
</svg>
