<?xml version="1.0" encoding="UTF-8" standalone="no"?>
<!DOCTYPE svg PUBLIC "-//W3C//DTD SVG 1.1//EN"
 "http://www.w3.org/Graphics/SVG/1.1/DTD/svg11.dtd">
<!-- Generated by graphviz version 2.38.0 (20140413.2041)
 -->
<!-- Title: models_diagram Pages: 1 -->
<svg width="484pt" height="230pt"
 viewBox="0.00 0.00 484.44 230.00" xmlns="http://www.w3.org/2000/svg" xmlns:xlink="http://www.w3.org/1999/xlink">
<g id="graph0" class="graph" transform="scale(1 1) rotate(0) translate(4 226)">
<title>models_diagram</title>
<polygon fill="none" stroke="none" points="-4,4 -4,-226 480.445,-226 480.445,4 -4,4"/>
<!-- _diagram_info -->
<g id="node1" class="node"><title>_diagram_info</title>
<text text-anchor="start" x="8" y="-207.6" font-family="Times,serif" font-size="13.00">Models diagram</text>
<text text-anchor="start" x="8" y="-193.6" font-family="Times,serif" font-size="13.00">Date: Mar 26 2017 &#45; 14:30</text>
<text text-anchor="start" x="8" y="-179.6" font-family="Times,serif" font-size="13.00">Migration version: 20170325114656</text>
<text text-anchor="start" x="8" y="-165.6" font-family="Times,serif" font-size="13.00">Generated by RailRoady 1.4.2</text>
<text text-anchor="start" x="8" y="-151.6" font-family="Times,serif" font-size="13.00">http://railroady.prestonlee.com</text>
</g>
<!-- Investigator -->
<g id="node2" class="node"><title>Investigator</title>
<ellipse fill="none" stroke="black" cx="285" cy="-183" rx="52.7911" ry="18"/>
<text text-anchor="middle" x="285" y="-179.3" font-family="Times,serif" font-size="14.00">Investigator</text>
</g>
<!-- Claim -->
<g id="node3" class="node"><title>Claim</title>
<ellipse fill="none" stroke="black" cx="344" cy="-90" rx="32.4942" ry="18"/>
<text text-anchor="middle" x="344" y="-86.3" font-family="Times,serif" font-size="14.00">Claim</text>
</g>
<!-- Investigator&#45;&gt;Claim -->
<g id="edge1" class="edge"><title>Investigator&#45;&gt;Claim</title>
<path fill="none" stroke="#7856fe" d="M300.359,-158.311C308.811,-145.275 319.292,-129.109 327.864,-115.887"/>
<ellipse fill="none" stroke="#7856fe" cx="297.998" cy="-161.953" rx="4.00002" ry="4.00002"/>
<polygon fill="#7856fe" stroke="#7856fe" points="328.005,-115.67 337.221,-109.727 330.726,-111.474 333.446,-107.279 333.446,-107.279 333.446,-107.279 330.726,-111.474 329.67,-104.831 328.005,-115.67 328.005,-115.67"/>
</g>
<!-- Access -->
<g id="node4" class="node"><title>Access</title>
<ellipse fill="none" stroke="black" cx="416" cy="-18" rx="35.9954" ry="18"/>
<text text-anchor="middle" x="416" y="-14.3" font-family="Times,serif" font-size="14.00">Access</text>
</g>
<!-- Claim&#45;&gt;Access -->
<g id="edge3" class="edge"><title>Claim&#45;&gt;Access</title>
<path fill="none" stroke="#e9a92d" d="M365.498,-68.0992C374.554,-59.2946 385.08,-49.0607 394.172,-40.2219"/>
<ellipse fill="none" stroke="#e9a92d" cx="362.491" cy="-71.0227" rx="4.00002" ry="4.00002"/>
<ellipse fill="#e9a92d" stroke="#e9a92d" cx="397.041" cy="-37.4323" rx="4.00002" ry="4.00002"/>
</g>
<!-- Crew -->
<g id="node6" class="node"><title>Crew</title>
<ellipse fill="none" stroke="black" cx="332" cy="-18" rx="29.795" ry="18"/>
<text text-anchor="middle" x="332" y="-14.3" font-family="Times,serif" font-size="14.00">Crew</text>
</g>
<!-- Claim&#45;&gt;Crew -->
<g id="edge2" class="edge"><title>Claim&#45;&gt;Crew</title>
<path fill="none" stroke="#49e32a" d="M339.372,-62.0054C338.493,-56.8733 337.571,-51.4985 336.689,-46.3553"/>
<polygon fill="#49e32a" stroke="#49e32a" points="339.405,-62.1987 336.66,-72.8153 340.25,-67.1268 341.095,-72.055 341.095,-72.055 341.095,-72.055 340.25,-67.1268 345.53,-71.2946 339.405,-62.1987 339.405,-62.1987"/>
<polygon fill="#49e32a" stroke="#49e32a" points="336.651,-46.1315 339.397,-35.5149 335.806,-41.2034 334.961,-36.2753 334.961,-36.2753 334.961,-36.2753 335.806,-41.2034 330.526,-37.0357 336.651,-46.1315 336.651,-46.1315"/>
</g>
<!-- Administrator -->
<g id="node5" class="node"><title>Administrator</title>
<ellipse fill="none" stroke="black" cx="416" cy="-183" rx="60.3893" ry="18"/>
<text text-anchor="middle" x="416" y="-179.3" font-family="Times,serif" font-size="14.00">Administrator</text>
</g>
<!-- Administrator&#45;&gt;Claim -->
<g id="edge4" class="edge"><title>Administrator&#45;&gt;Claim</title>
<path fill="none" stroke="#1831a9" d="M397.532,-158.658C386.838,-145.143 373.414,-128.177 362.685,-114.615"/>
<ellipse fill="none" stroke="#1831a9" cx="400.312" cy="-162.172" rx="4.00002" ry="4.00002"/>
<polygon fill="#1831a9" stroke="#1831a9" points="362.605,-114.515 359.929,-103.88 359.503,-110.594 356.4,-106.673 356.4,-106.673 356.4,-106.673 359.503,-110.594 352.871,-109.465 362.605,-114.515 362.605,-114.515"/>
</g>
<!-- Administrator&#45;&gt;Access -->
<g id="edge5" class="edge"><title>Administrator&#45;&gt;Access</title>
<path fill="none" stroke="#bb36f8" d="M416,-156.52C416,-126.6 416,-77.1639 416,-46.4265"/>
<ellipse fill="none" stroke="#bb36f8" cx="416" cy="-160.864" rx="4" ry="4"/>
<polygon fill="#bb36f8" stroke="#bb36f8" points="416,-46.3968 420.5,-36.3967 416,-41.3968 416,-36.3968 416,-36.3968 416,-36.3968 416,-41.3968 411.5,-36.3968 416,-46.3968 416,-46.3968"/>
</g>
</g>
</svg>
